<?xml version="1.0" standalone="no"?>
<!DOCTYPE svg PUBLIC "-//W3C//DTD SVG 20010904//EN"
 "http://www.w3.org/TR/2001/REC-SVG-20010904/DTD/svg10.dtd">
<svg version="1.0" xmlns="http://www.w3.org/2000/svg"
 width="1024.000000pt" height="1024.000000pt" viewBox="0 0 1024.000000 1024.000000"
 preserveAspectRatio="xMidYMid meet">
<metadata>
Created by potrace 1.11, written by Peter Selinger 2001-2013
</metadata>
<g transform="translate(0.000000,1024.000000) scale(0.100000,-0.100000)"
fill="#000000" stroke="none">
<path d="M4817 10065 c-936 -118 -1707 -705 -2041 -1553 -49 -126 -94 -291
-120 -442 l-22 -125 -580 -5 -579 -5 -57 -27 c-122 -57 -202 -167 -220 -302
-5 -39 -169 -1500 -364 -3246 -195 -1746 -371 -3317 -390 -3490 -38 -333 -39
-417 -8 -537 34 -134 112 -243 218 -304 l51 -29 4433 0 4433 0 50 26 c147 74
218 211 219 421 0 46 -110 1247 -245 2670 -135 1424 -284 2991 -330 3483 -47
492 -90 926 -95 964 -14 91 -53 170 -114 231 -64 63 -133 100 -232 125 -72 19
-112 20 -640 20 l-564 0 -4 23 c-3 12 -12 67 -22 122 -76 453 -297 881 -634
1229 -381 393 -857 640 -1421 737 -160 27 -556 35 -722 14z m603 -581 c581
-84 1091 -418 1386 -910 101 -169 200 -430 220 -585 l7 -49 -1907 0 c-1286 0
-1906 3 -1906 10 0 32 47 218 77 304 91 264 244 498 459 706 269 260 595 429
969 505 228 46 461 53 695 19z m-2334 -2002 c86 -44 128 -116 128 -217 0 -76
-15 -117 -63 -168 -121 -132 -354 -78 -405 94 -20 66 -20 82 0 148 41 138 211
209 340 143z m4205 13 c106 -36 163 -118 163 -230 0 -116 -59 -197 -172 -232
-130 -41 -271 44 -302 183 -13 57 -5 105 28 167 55 103 173 149 283 112z
m-2581 -2050 l0 -925 83 54 c440 286 931 330 1348 121 87 -44 231 -142 300
-204 117 -105 200 -331 241 -661 10 -82 13 -387 13 -1365 l0 -1260 -582 -3
-583 -2 0 1222 c0 949 -3 1237 -13 1284 -15 73 -56 144 -100 178 -102 78 -288
84 -420 13 -71 -37 -117 -89 -163 -182 -66 -135 -64 -97 -85 -1350 -11 -627
-22 -1146 -24 -1153 -4 -10 -126 -12 -587 -10 l-583 3 4 1385 c2 762 7 1884
10 2494 l6 1110 535 87 c294 48 550 87 568 88 l32 1 0 -925z"/>
</g>
</svg>
